<svg id="Layer_1" data-name="Layer 1" xmlns="http://www.w3.org/2000/svg" viewBox="0 0 512.21 600.5"><title>maxwell-wien-bridge</title><path d="M402.14,432.86l12.73-12.73-4.24-9.9,19.8,8.48-8.49-19.8,19.8,8.49-8.48-19.8,19.8,8.49-8.49-19.8,19.8,8.48-4.24-9.9,12.73-12.73" transform="translate(-11.65 -7.5)" fill="none" stroke="#000" stroke-miterlimit="10"/><path d="M356.14,386.86l29.7-29.7m11.32-11.32,29.7-29.7" transform="translate(-11.65 -7.5)" fill="none" stroke="#000" stroke-miterlimit="10"/><rect x="385.4" y="326.1" width="3" height="60" transform="translate(-150.12 370.38) rotate(-45)" fill="none" stroke="#000"/><rect x="394.6" y="316.9" width="3" height="60" transform="translate(-140.93 374.19) rotate(-45)" fill="#fff" stroke="#000"/><path d="M157,118.7l-21-21a12.5,12.5,0,0,1,17.68-17.68,12.5,12.5,0,0,1,17.67-17.68,12.5,12.5,0,0,1,17.68-17.67A12.5,12.5,0,0,1,206.74,27l21,21" transform="translate(-11.65 -7.5)" fill="none" stroke="#000" stroke-miterlimit="10"/><path d="M332.14,72.14l12.73,12.73,9.9-4.24-8.48,19.8,19.8-8.49-8.49,19.8,19.8-8.48-8.49,19.8,19.8-8.49-8.48,19.8,9.9-4.24,12.73,12.73" transform="translate(-11.65 -7.5)" fill="none" stroke="#000" stroke-miterlimit="10"/><path d="M52.14,222.86l12.73-12.73-4.24-9.9,19.8,8.48-8.49-19.8,19.8,8.49-8.48-19.8,19.8,8.49-8.49-19.8,19.8,8.48-4.24-9.9,12.73-12.73" transform="translate(-11.65 -7.5)" fill="none" stroke="#000" stroke-miterlimit="10"/><path d="M102.14,352.14l12.73,12.73,9.9-4.24-8.48,19.8,19.8-8.49-8.49,19.8,19.8-8.48-8.49,19.8,19.8-8.49-8.48,19.8,9.9-4.24,12.73,12.73" transform="translate(-11.65 -7.5)" fill="none" stroke="#000" stroke-miterlimit="10"/><path d="M402.14,432.86l-45.49-45.5" transform="translate(-11.65 -7.5)" fill="none" stroke="#000" stroke-miterlimit="10"/><path d="M472.86,362.14l-45.5-45.49" transform="translate(-11.65 -7.5)" fill="none" stroke="#000" stroke-miterlimit="10"/><path d="M157,118.7l-34.59,34" transform="translate(-11.65 -7.5)" fill="none" stroke="#000" stroke-miterlimit="10"/><path d="M227.7,48,267,8" transform="translate(-11.65 -7.5)" fill="none" stroke="#000" stroke-miterlimit="10"/><path d="M332.14,72.14,268,8" transform="translate(-11.65 -7.5)" fill="none" stroke="#000" stroke-miterlimit="10"/><path d="M402.86,142.86,523,263" transform="translate(-11.65 -7.5)" fill="none" stroke="#000" stroke-miterlimit="10"/><path d="M52.14,222.86,12,263" transform="translate(-11.65 -7.5)" fill="none" stroke="#000" stroke-miterlimit="10"/><path d="M172.86,422.86,267,517" transform="translate(-11.65 -7.5)" fill="none" stroke="#000" stroke-miterlimit="10"/><path d="M267.5,517.5V7.5" transform="translate(-11.65 -7.5)" fill="none" stroke="#000" stroke-miterlimit="10"/><path d="M267.5,517.5l110-110" transform="translate(-11.65 -7.5)" fill="none" stroke="#000" stroke-miterlimit="10"/><path d="M447.5,337.5l76-76" transform="translate(-11.65 -7.5)" fill="none" stroke="#000" stroke-miterlimit="10"/><path d="M297,577.32H522.62l-.12-316.45" transform="translate(-11.65 -7.5)" fill="none" stroke="#000" stroke-miterlimit="10"/><path d="M237,577.32H12.62L12.5,263.87" transform="translate(-11.65 -7.5)" fill="none" stroke="#000" stroke-miterlimit="10"/><path d="M102.14,352.14,12,262" transform="translate(-11.65 -7.5)" fill="none" stroke="#000" stroke-miterlimit="10"/><circle cx="255.85" cy="570" r="30" fill="#fff" stroke="#000"/><path d="M252.5,577.5a8,8,0,0,1,15,0,8,8,0,0,0,15,0" transform="translate(-11.65 -7.5)" fill="none" stroke="#000" stroke-miterlimit="10"/><path d="M35,151.28a33.62,33.62,0,0,1,6.34-.54c3.54,0,5.82.65,7.41,2.09a6.4,6.4,0,0,1,2,4.87,6.72,6.72,0,0,1-4.83,6.53v.12c2,.68,3.15,2.5,3.76,5.16a40.09,40.09,0,0,0,2,7H48.22a32.69,32.69,0,0,1-1.71-6.11c-.76-3.54-2.13-4.87-5.13-5H38.26v11.09H35Zm3.3,11.66h3.38c3.54,0,5.78-1.94,5.78-4.86,0-3.31-2.39-4.75-5.89-4.79a13.76,13.76,0,0,0-3.27.3Z" transform="translate(-11.65 -7.5)"/><path d="M61.48,155H61.4l-4.29,2.32-.65-2.55,5.4-2.88h2.85v24.69H61.48Z" transform="translate(-11.65 -7.5)"/><path d="M90,402.66a34.54,34.54,0,0,1,6.34-.53c3.54,0,5.82.64,7.41,2.09a6.39,6.39,0,0,1,2,4.86,6.74,6.74,0,0,1-4.83,6.54v.11c2,.68,3.15,2.51,3.76,5.17a41.34,41.34,0,0,0,2,7h-3.42a33.14,33.14,0,0,1-1.71-6.12c-.76-3.53-2.13-4.86-5.13-5H93.33v11.1H90Zm3.3,11.66h3.38c3.54,0,5.78-1.93,5.78-4.86,0-3.3-2.39-4.75-5.89-4.79a13.66,13.66,0,0,0-3.27.31Z" transform="translate(-11.65 -7.5)"/><path d="M109.29,427.93v-2.06l2.62-2.54c6.31-6,9.16-9.2,9.2-12.92,0-2.51-1.22-4.82-4.9-4.82a8.43,8.43,0,0,0-5.24,2.08l-1.07-2.35a10.86,10.86,0,0,1,7-2.51c5.32,0,7.56,3.65,7.56,7.18,0,4.56-3.3,8.25-8.51,13.26l-2,1.83v.07h11.09v2.78Z" transform="translate(-11.65 -7.5)"/><path d="M382.28,69.28a33.8,33.8,0,0,1,6.35-.54c3.53,0,5.81.65,7.41,2.09a6.39,6.39,0,0,1,2,4.87,6.72,6.72,0,0,1-4.82,6.53v.12c2,.68,3.15,2.5,3.76,5.16a40.39,40.39,0,0,0,2,7h-3.42a34.42,34.42,0,0,1-1.71-6.11c-.76-3.54-2.12-4.87-5.13-5h-3.11V94.54h-3.31Zm3.31,11.66H389c3.53,0,5.78-1.94,5.78-4.86,0-3.31-2.4-4.75-5.89-4.79a13.76,13.76,0,0,0-3.27.3Z" transform="translate(-11.65 -7.5)"/><path d="M402.35,90.71a11.26,11.26,0,0,0,5.47,1.55c4.29,0,5.62-2.73,5.58-4.78,0-3.46-3.15-4.94-6.38-4.94h-1.86V80H407c2.43,0,5.51-1.25,5.51-4.18,0-2-1.25-3.72-4.33-3.72a9,9,0,0,0-4.94,1.63l-.88-2.43a11.76,11.76,0,0,1,6.46-1.9c4.87,0,7.07,2.89,7.07,5.89,0,2.54-1.52,4.71-4.56,5.81v.08a6.42,6.42,0,0,1,5.51,6.34c0,4-3.08,7.41-9,7.41a12.56,12.56,0,0,1-6.43-1.67Z" transform="translate(-11.65 -7.5)"/><path d="M450.39,414.66a34.54,34.54,0,0,1,6.34-.53c3.54,0,5.82.64,7.41,2.09a6.39,6.39,0,0,1,2,4.86,6.74,6.74,0,0,1-4.83,6.54v.11c2,.68,3.15,2.51,3.76,5.17a41.34,41.34,0,0,0,2,7h-3.42a33.14,33.14,0,0,1-1.71-6.12c-.76-3.53-2.13-4.86-5.13-5h-3.12v11.1h-3.3Zm3.3,11.66h3.39c3.53,0,5.77-1.93,5.77-4.86,0-3.3-2.39-4.75-5.89-4.79a13.73,13.73,0,0,0-3.27.31Z" transform="translate(-11.65 -7.5)"/><path d="M480,439.93V433.2H468.51V431l11-15.77h3.61v15.35h3.46v2.62h-3.46v6.73Zm0-9.35v-8.24c0-1.3,0-2.59.11-3.88H480c-.76,1.44-1.37,2.51-2.05,3.65l-6.05,8.39v.08Z" transform="translate(-11.65 -7.5)"/><path d="M127.65,27.93H131V50.77H141.9v2.77H127.65Z" transform="translate(-11.65 -7.5)"/><path d="M151.67,32h-.08l-4.29,2.32-.65-2.55,5.4-2.88h2.85V53.54h-3.23Z" transform="translate(-11.65 -7.5)"/><path d="M335.78,323.79A16.38,16.38,0,0,1,329,325c-7.22,0-12.66-4.56-12.66-13,0-8,5.44-13.45,13.38-13.45a13.85,13.85,0,0,1,6.08,1.14l-.8,2.7a12,12,0,0,0-5.17-1.06c-6,0-10,3.83-10,10.56,0,6.27,3.61,10.3,9.84,10.3a13.11,13.11,0,0,0,5.39-1.07Z" transform="translate(-11.65 -7.5)"/><path d="M349.08,324.63V317.9H337.61v-2.2l11-15.77h3.61v15.35h3.46v2.62h-3.46v6.73Zm0-9.35V307c0-1.29,0-2.59.11-3.88h-.11c-.76,1.45-1.37,2.51-2.05,3.65l-6,8.4v.07Z" transform="translate(-11.65 -7.5)"/><circle cx="255.85" cy="250" r="40" fill="#fff" stroke="#000"/><path d="M275.38,268.75a23.9,23.9,0,0,1-7.87,1.41c-3.87,0-7.06-1-9.57-3.39a13.16,13.16,0,0,1-3.57-9.53c0-7.64,5.28-13.22,13.87-13.22a15.88,15.88,0,0,1,6.38,1.17l-.8,2.7a13.26,13.26,0,0,0-5.66-1.1c-6.23,0-10.3,3.87-10.3,10.3s3.92,10.33,9.88,10.33a10.8,10.8,0,0,0,4.41-.68V259.1h-5.21v-2.66h8.44Z" transform="translate(-11.65 -7.5)"/></svg>