<svg id="svg2501" xmlns="http://www.w3.org/2000/svg" viewBox="0 0 278.54 362.77"><title>wheatstone-bridge</title><g id="g6543"><path id="path6545" d="M122.6,204.2l-10-10" transform="translate(-5.73 -6.56)" fill="none" stroke="#000" stroke-linecap="square" stroke-width="3.54"/><path id="path6547" d="M87.52,169.12l-10-10" transform="translate(-5.73 -6.56)" fill="none" stroke="#000" stroke-linecap="square" stroke-width="3.54"/><rect id="rect6549" x="92.96" y="163.93" width="14.17" height="35.43" stroke-width="3.54" transform="translate(-104.87 117.39) rotate(-45)" stroke="#000" stroke-linecap="square" stroke-linejoin="round" fill="none"/></g><g id="g2402"><path id="path1315" d="M139.47,310.86v56.7" transform="translate(-5.73 -6.56)" fill="none" stroke="#000" stroke-linecap="square" stroke-width="3.54"/><path id="path1317" d="M148.33,325v28.34" transform="translate(-5.73 -6.56)" fill="none" stroke="#000" stroke-linecap="square" stroke-width="7.09"/><path id="path2220" d="M127.07,339.21h14.17" transform="translate(-5.73 -6.56)" fill="none" stroke="#000" stroke-width="3.54"/><path id="path2222" d="M148.33,339.21H162.5" transform="translate(-5.73 -6.56)" fill="none" stroke="#000" stroke-linecap="square" stroke-width="3.54"/><g id="g3965"><path id="path3967" d="M127.07,310.86V325" transform="translate(-5.73 -6.56)" fill="none" stroke="#000" stroke-width="1"/><path id="path3969" d="M134.15,318H120" transform="translate(-5.73 -6.56)" fill="none" stroke="#000" stroke-width="1"/></g></g><path id="path2404" d="M52.5,131.73a2.37,2.37,0,1,1-2.37,2.37A2.37,2.37,0,0,1,52.5,131.73Z" transform="translate(-5.73 -6.56)" stroke="#000" stroke-linecap="square" stroke-width="2.65"/><path id="path6655" d="M147.5,229.1v-65" transform="translate(-5.73 -6.56)" fill="none" stroke="#000" stroke-linecap="round" stroke-width="3.54"/><path id="path6422" d="M147.5,105.75a28.35,28.35,0,0,1,.07,56.7h-.07a28.35,28.35,0,0,1-.07-56.7Z" transform="translate(-5.73 -6.56)" fill="none" stroke="#000" stroke-linecap="square" stroke-width="1.53"/><g id="g6567"><g id="text6569" style="isolation:isolate"><g style="isolation:isolate"><path d="M208.42,74l4.2-20h4.11l-3.48,16.69h10.2l-.7,3.35Z" transform="translate(-5.73 -6.56)"/></g></g><g id="text6573" style="isolation:isolate"><g style="isolation:isolate"><path d="M235.11,83.9h-2.47V74.59a8.44,8.44,0,0,1-3.19,1.87V74.22a7,7,0,0,0,2.1-1.2A4.51,4.51,0,0,0,233.11,71h2Z" transform="translate(-5.73 -6.56)"/></g></g></g><g id="g6614"><g id="text6616" style="isolation:isolate"><g style="isolation:isolate"><path d="M212.43,221.54H208.3l4.19-20h8.9A10.53,10.53,0,0,1,225,202,4.08,4.08,0,0,1,227,203.7a5.63,5.63,0,0,1,.78,3,6,6,0,0,1-1.53,4.22,7.36,7.36,0,0,1-4.64,2.06,7.9,7.9,0,0,1,1.49,1.87,48.32,48.32,0,0,1,3.08,6.65h-4.43c-.35-1.13-1-2.9-2.09-5.29a6.21,6.21,0,0,0-1.81-2.62,3.9,3.9,0,0,0-2-.39h-1.68Zm2.36-11.31H217a15.34,15.34,0,0,0,4.41-.4,3.49,3.49,0,0,0,1.7-1.24,3,3,0,0,0,.62-1.78,1.81,1.81,0,0,0-.89-1.64,5.43,5.43,0,0,0-2.37-.33h-4.54Z" transform="translate(-5.73 -6.56)"/></g></g><g id="text6620" style="isolation:isolate"><g style="isolation:isolate"><path d="M233.32,231.41h-2.17l-1.87-9.33h2.48l.65,4.07c.19,1.1.3,1.83.33,2.2,0-.1.25-.48.61-1.14s.58-1.06.66-1.19l2.32-3.94h2.73Z" transform="translate(-5.73 -6.56)"/></g></g></g><g id="g6624"><g id="text6626" style="isolation:isolate"><g style="isolation:isolate"><path d="M61.82,69.09,66,49h4.11l-3.49,16.7h10.2l-.69,3.35Z" transform="translate(-5.73 -6.56)"/></g></g><g id="text6630" style="isolation:isolate"><g style="isolation:isolate"><path d="M90.53,76.67V79H81.87a6,6,0,0,1,.85-2.46,16.24,16.24,0,0,1,2.77-3.09,17,17,0,0,0,2.05-2.11,2.74,2.74,0,0,0,.51-1.52,1.71,1.71,0,0,0-.44-1.26,1.87,1.87,0,0,0-2.46,0,2.42,2.42,0,0,0-.53,1.54l-2.46-.24a4.06,4.06,0,0,1,1.38-2.93,4.66,4.66,0,0,1,2.9-.89,4.22,4.22,0,0,1,3,1,3.37,3.37,0,0,1,1.09,2.56,4.45,4.45,0,0,1-.31,1.66,6.81,6.81,0,0,1-1,1.64,16.51,16.51,0,0,1-1.62,1.65c-.78.71-1.27,1.19-1.48,1.42a4.11,4.11,0,0,0-.5.69Z" transform="translate(-5.73 -6.56)"/></g></g></g><g id="g6642"><path id="path6644" d="M122.5,64.1l-10,10" transform="translate(-5.73 -6.56)" fill="none" stroke="#000" stroke-linecap="square" stroke-width="3.54"/><path id="path6646" d="M87.42,99.18l-10,10" transform="translate(-5.73 -6.56)" fill="none" stroke="#000" stroke-linecap="square" stroke-width="3.54"/><rect id="rect6648" x="82.23" y="79.56" width="35.43" height="14.17" stroke-width="3.54" transform="translate(-37.72 89.5) rotate(-45)" stroke="#000" stroke-linecap="square" stroke-linejoin="round" fill="none"/></g><g id="g6650"><g id="text6652" style="isolation:isolate"><g style="isolation:isolate"><path d="M140.2,140.48h-4.4l-3.59-20h4.11l2.54,15.17,8.3-15.17h4.09Z" transform="translate(-5.73 -6.56)"/></g></g><g id="text6656" style="isolation:isolate"><g style="isolation:isolate"><path d="M157.81,143.47h5.77L162.42,149a10.89,10.89,0,0,1-5.52,1.57,5.52,5.52,0,0,1-3.67-1.08,5.29,5.29,0,0,1-1.74-4.28,8.9,8.9,0,0,1,.75-3.6,7.32,7.32,0,0,1,2.55-3.22,6.65,6.65,0,0,1,3.88-1.14,5.72,5.72,0,0,1,3.58,1,5,5,0,0,1,1.79,3l-2.47.28a3,3,0,0,0-1-1.64,2.9,2.9,0,0,0-1.82-.56,4.35,4.35,0,0,0-2.36.67,4.41,4.41,0,0,0-1.68,2.07,7.6,7.6,0,0,0-.6,3,3.36,3.36,0,0,0,.74,2.41,2.83,2.83,0,0,0,2.16.78,6.76,6.76,0,0,0,1.75-.24,8.74,8.74,0,0,0,1.54-.58l.4-1.92h-3.29Z" transform="translate(-5.73 -6.56)"/></g></g></g><g id="g6660"><g id="text6662" style="isolation:isolate"><g style="isolation:isolate"><path d="M72.86,215.6H68.73l4.2-20h8.9a10.54,10.54,0,0,1,3.57.47,4.08,4.08,0,0,1,2.07,1.73,5.67,5.67,0,0,1,.78,3.05A6,6,0,0,1,86.72,205a7.28,7.28,0,0,1-4.63,2.06A8.23,8.23,0,0,1,83.58,209a49.47,49.47,0,0,1,3.07,6.64H82.22q-.52-1.69-2.09-5.29a6.09,6.09,0,0,0-1.8-2.61,3.81,3.81,0,0,0-2-.4H74.59Zm2.36-11.31h2.19a15.75,15.75,0,0,0,4.41-.39,3.57,3.57,0,0,0,1.7-1.25,3,3,0,0,0,.62-1.77,1.83,1.83,0,0,0-.89-1.65,5.61,5.61,0,0,0-2.37-.32H76.34Z" transform="translate(-5.73 -6.56)"/></g></g><g id="text6666" style="isolation:isolate"><g style="isolation:isolate"><path d="M95.45,225.48H93v-9.31A8.52,8.52,0,0,1,89.79,218V215.8a7.2,7.2,0,0,0,2.1-1.2,4.63,4.63,0,0,0,1.56-2.06h2Z" transform="translate(-5.73 -6.56)"/></g></g></g><path id="path6670" d="M147.5,104.1v-65" transform="translate(-5.73 -6.56)" fill="none" stroke="#000" stroke-linecap="round" stroke-width="3.54"/><path id="path6674" d="M147.5,229.1l-25-25" transform="translate(-5.73 -6.56)" fill="none" stroke="#000" stroke-linecap="round" stroke-width="3.54"/><path id="path6676" d="M77.5,159.1l-25-25" transform="translate(-5.73 -6.56)" fill="none" stroke="#000" stroke-linecap="round" stroke-width="3.54"/><path id="path6678" d="M52.5,134.1l25-25" transform="translate(-5.73 -6.56)" fill="none" stroke="#000" stroke-linecap="round" stroke-width="3.54"/><path id="path6680" d="M122.5,64.1l25-25" transform="translate(-5.73 -6.56)" fill="none" stroke="#000" stroke-linecap="round" stroke-width="3.54"/><g id="g6682"><path id="path6684" d="M172.4,64l10,10" transform="translate(-5.73 -6.56)" fill="none" stroke="#000" stroke-linecap="square" stroke-width="3.54"/><path id="path6686" d="M207.48,99.08l10,10" transform="translate(-5.73 -6.56)" fill="none" stroke="#000" stroke-linecap="square" stroke-width="3.54"/><rect id="rect6688" x="187.86" y="68.83" width="14.17" height="35.43" stroke-width="3.54" transform="translate(-9.83 156.64) rotate(-45)" stroke="#000" stroke-linecap="square" stroke-linejoin="round" fill="none"/></g><g id="g6690"><path id="path6692" d="M172.5,204.1l10-10" transform="translate(-5.73 -6.56)" fill="none" stroke="#000" stroke-linecap="square" stroke-width="3.54"/><path id="path6694" d="M207.58,169l10-10" transform="translate(-5.73 -6.56)" fill="none" stroke="#000" stroke-linecap="square" stroke-width="3.54"/><path d="M197.07,205.77V149.21M190,156.28l7.07-7.07,7.07,7.07" transform="translate(-5.73 -6.56)" fill="none" stroke="#000" stroke-linecap="square" stroke-width="3.54"/><rect id="rect6696" x="177.33" y="174.46" width="35.43" height="14.17" stroke-width="3.54" transform="translate(-76.97 184.54) rotate(-45)" stroke="#000" stroke-linecap="square" stroke-linejoin="round" fill="none"/></g><path id="path6698" d="M147.5,39.1l25,25" transform="translate(-5.73 -6.56)" fill="none" stroke="#000" stroke-linecap="round" stroke-width="3.54"/><path id="path6700" d="M217.5,109.1l25,25" transform="translate(-5.73 -6.56)" fill="none" stroke="#000" stroke-linecap="round" stroke-width="3.54"/><path id="path6702" d="M242.5,134.1l-25,25" transform="translate(-5.73 -6.56)" fill="none" stroke="#000" stroke-linecap="round" stroke-width="3.54"/><path id="path6704" d="M172.5,204.1l-25,25" transform="translate(-5.73 -6.56)" fill="none" stroke="#000" stroke-linecap="round" stroke-width="3.54"/><path id="path6706" d="M147.5,226.73a2.37,2.37,0,1,1-2.37,2.37A2.37,2.37,0,0,1,147.5,226.73Z" transform="translate(-5.73 -6.56)" stroke="#000" stroke-linecap="square" stroke-width="2.65"/><path id="path6708" d="M147.5,36.73a2.37,2.37,0,1,1-2.37,2.37A2.37,2.37,0,0,1,147.5,36.73Z" transform="translate(-5.73 -6.56)" stroke="#000" stroke-linecap="square" stroke-width="2.65"/><path id="path6710" d="M242.5,131.73a2.37,2.37,0,1,1-2.37,2.37A2.37,2.37,0,0,1,242.5,131.73Z" transform="translate(-5.73 -6.56)" stroke="#000" stroke-linecap="square" stroke-width="2.65"/><path id="path6712" d="M282.5,339.1v-205" transform="translate(-5.73 -6.56)" fill="none" stroke="#000" stroke-linecap="round" stroke-width="3.54"/><path id="path6714" d="M7.5,339.1v-205" transform="translate(-5.73 -6.56)" fill="none" stroke="#000" stroke-linecap="round" stroke-width="3.54"/><path id="path6716" d="M127.5,339.1H7.5" transform="translate(-5.73 -6.56)" fill="none" stroke="#000" stroke-linecap="round" stroke-width="3.54"/><path id="path6718" d="M52.5,134.1H7.5" transform="translate(-5.73 -6.56)" fill="none" stroke="#000" stroke-linecap="round" stroke-width="3.54"/><path id="path6720" d="M282.5,134.1h-40" transform="translate(-5.73 -6.56)" fill="none" stroke="#000" stroke-linecap="round" stroke-width="3.54"/><path id="path6722" d="M282.5,339.1h-120" transform="translate(-5.73 -6.56)" fill="none" stroke="#000" stroke-linecap="round" stroke-width="3.54"/><g id="text6724" style="isolation:isolate"><g style="isolation:isolate"><path d="M159.58,26.6h-4.4l-1.75-4.55h-8l-1.66,4.55h-4.29l7.8-20h4.28Zm-7.45-7.93-2.76-7.44-2.71,7.44Z" transform="translate(-5.73 -6.56)"/></g></g><g id="text6728" style="isolation:isolate"><g style="isolation:isolate"><path d="M246.92,96.56h8a23.68,23.68,0,0,1,3.55.19,5.28,5.28,0,0,1,2.09.83,5.1,5.1,0,0,1,1.54,1.68,4.52,4.52,0,0,1,.62,2.34,4.74,4.74,0,0,1-2.82,4.35,5.26,5.26,0,0,1,2.82,1.82,4.84,4.84,0,0,1,1,3,6,6,0,0,1-.63,2.66,5.41,5.41,0,0,1-1.74,2.06,5.73,5.73,0,0,1-2.71.95c-.68.08-2.31.12-4.89.14h-6.82ZM251,99.89v4.64h2.65c1.58,0,2.56,0,2.94-.07a2.63,2.63,0,0,0,1.63-.72,2.11,2.11,0,0,0,.6-1.56,2.19,2.19,0,0,0-.51-1.51,2.32,2.32,0,0,0-1.53-.71c-.4,0-1.55-.07-3.46-.07Zm0,8v5.36h3.74a18.81,18.81,0,0,0,2.78-.12,2.54,2.54,0,0,0,1.47-.8,2.44,2.44,0,0,0,.57-1.7,2.63,2.63,0,0,0-.44-1.53,2.45,2.45,0,0,0-1.26-.92,13.83,13.83,0,0,0-3.59-.29Z" transform="translate(-5.73 -6.56)"/></g></g><g id="text6732" style="isolation:isolate"><g style="isolation:isolate"><path d="M36.52,101.56h7.4a14.19,14.19,0,0,1,3.81.38,6.62,6.62,0,0,1,3,1.85A8.72,8.72,0,0,1,52.67,107a14.72,14.72,0,0,1,.66,4.74,13.22,13.22,0,0,1-.62,4.27,8.93,8.93,0,0,1-2.15,3.54,7.24,7.24,0,0,1-2.84,1.6,12.34,12.34,0,0,1-3.58.42H36.52Zm4,3.39v13.27h3A10.92,10.92,0,0,0,46,118a3.71,3.71,0,0,0,1.63-.83,4.24,4.24,0,0,0,1.06-1.94,13.16,13.16,0,0,0,.41-3.67,12.1,12.1,0,0,0-.41-3.57,4.5,4.5,0,0,0-1.15-1.94,3.82,3.82,0,0,0-1.87-.94,18.17,18.17,0,0,0-3.32-.19Z" transform="translate(-5.73 -6.56)"/></g></g><g id="text6736" style="isolation:isolate"><g style="isolation:isolate"><path d="M154.33,253.23l3.92,1.24a8.79,8.79,0,0,1-3,4.88,8.56,8.56,0,0,1-5.32,1.59,8.65,8.65,0,0,1-6.57-2.73,10.42,10.42,0,0,1-2.57-7.45c0-3.34.87-5.93,2.59-7.78a8.88,8.88,0,0,1,6.79-2.77,8.35,8.35,0,0,1,6,2.18,8,8,0,0,1,2,3.69l-4,1a4.15,4.15,0,0,0-4.22-3.37,4.59,4.59,0,0,0-3.62,1.6c-.92,1.07-1.39,2.8-1.39,5.19s.46,4.33,1.37,5.41a4.46,4.46,0,0,0,3.56,1.61,4.05,4.05,0,0,0,2.77-1A6,6,0,0,0,154.33,253.23Z" transform="translate(-5.73 -6.56)"/></g></g></svg>